<svg xmlns="http://www.w3.org/2000/svg" width="16" height="14" viewBox="0 0 16 14">
  <defs>
    <style>
      .cls-1 {
        fill: #fff;
        fill-rule: evenodd;
      }
    </style>
  </defs>
  <path id="footer-icon-t.svg" class="cls-1" d="M1351.39,4105.39l1.61-.34a14.347,14.347,0,0,1-1.61,1.71,0.01,0.01,0,0,0-.01-0.01,6.3,6.3,0,0,0,.01,1.03c-3.07,14.08-14.39,7.85-14.39,7.85,4.12,0.12,4.48-1.7,4.48-1.7a3.305,3.305,0,0,1-2.87-2.05,0.977,0.977,0,0,0,1.28-.34,3.112,3.112,0,0,1-2.24-3.42,2.869,2.869,0,0,0,1.57.65c-0.3-.37-2.73-3.48-1.25-5.09a7.93,7.93,0,0,0,6.47,3.74l0.31-.09a4.525,4.525,0,0,1-.07-0.74,3.48,3.48,0,0,1,3.36-3.59c2.23,0,2.71,1.37,2.71,1.37l1.6-1.03S1352.18,4105.05,1351.39,4105.39Z" transform="translate(-1337 -4103)"/>
</svg>
