<svg xmlns="http://www.w3.org/2000/svg" width="16" height="16" viewBox="0 0 16 16">
  <defs>
    <style>
      .cls-1 {
        fill: #43484d;
        fill-rule: evenodd;
      }
    </style>
  </defs>
  <path id="account.svg" class="cls-1" d="M1443.34,35.744a55.888,55.888,0,0,1-10.68,0c-1.69-.282-2.66-0.888-2.66-1.9,0-1.343,1.73-3.216,4.13-4.3a4.274,4.274,0,0,0,7.74,0c2.4,1.084,4.13,2.957,4.13,4.3C1446,34.857,1445.03,35.462,1443.34,35.744ZM1438,30.667c-2.21,0-4-2.94-4-5.96,0-2.812,1.67-4.706,4-4.706s4,1.893,4,4.706C1442,27.727,1440.21,30.667,1438,30.667Z" transform="translate(-1430 -20)"/>
</svg>
