<svg xmlns="http://www.w3.org/2000/svg" width="16" height="15" viewBox="0 0 16 15">
  <defs>
    <style>
      .cls-1 {
        fill: #43484d;
        fill-rule: evenodd;
      }
    </style>
  </defs>
  <path id="cart.svg" class="cls-1" d="M1203,27a1.784,1.784,0,0,1-1,1h-8.5a0.5,0.5,0,1,0,0,1h7.5a1,1,0,0,1,0,2h-9a1,1,0,0,1-1-1V23.414s-1.06-1.063-2-2A1.242,1.242,0,0,1,1190.41,20c0.88,0.875,2,2,2,2H1204a1,1,0,0,1,1,1Zm-10.5,5a1.5,1.5,0,1,1-1.5,1.5A1.5,1.5,0,0,1,1192.5,32Zm8,0a1.5,1.5,0,1,1-1.5,1.5A1.5,1.5,0,0,1,1200.5,32Z" transform="translate(-1189 -20)"/>
</svg>
